#N canvas 561 144 632 534 10;
#N canvas 218 151 700 583 internal 0;
#X obj 205 -134 pink~;
#X obj 347 -82 pow;
#X obj 331 -200 r newguess;
#X obj 334 -109 f 2;
#X obj 321 -157 randomF 8.7;
#X floatatom 349 -29 8 0 0 0 - - -;
#X obj 355 -53 * 40;
#X obj 345 -132 t b f;
#X obj 436 -76 pow;
#X obj 421 -202 r newguess;
#X obj 423 -101 f 2;
#X floatatom 448 -24 8 0 0 0 - - -;
#X obj 424 -122 t b f;
#X obj 426 -143 randomF 2.5;
#X obj 445 -50 * 0.5;
#X obj 450 -179 spigot;
#X obj 494 -203 r randomize_q;
#X obj 523 -175 == 0;
#X obj 505 -147 spigot;
#X obj 523 -107 r set_q;
#X obj 503 -74 f 1;
#X obj 113 437 hsl 360 24 40 17000 1 1 empty empty empty -2 -8 0 10
-262144 -1 -1 23600 1;
#X floatatom 110 465 8 0 0 0 - - -;
#X obj 586 -218 r newguess;
#X obj 587 -173 spigot;
#X obj 688 -169 == 0;
#X obj 670 -141 spigot;
#X obj 590 -92 + 3;
#X obj 588 -129 randomF 9;
#X obj 668 -68 f 9;
#X floatatom 610 -29 8 0 0 0 - - -;
#X obj 619 -197 r randomize_db;
#X obj 688 -101 r set_db;
#X obj 177 410 hsl 280 20 0.25 4 1 0 empty empty empty -2 -8 0 10 -262144
-1 -1 14415 1;
#X floatatom 128 414 5 0 0 0 - - -;
#X obj 282 112 vsl 24 280 -18 12 0 1 empty empty empty 0 -9 0 10 -262144
-1 -1 6195 1;
#X floatatom 323 377 5 0 0 0 - - -;
#X text 106 104 dB GAIN:;
#X text 106 121 rand:;
#X obj 140 123 tgl 15 0 empty empty empty 17 7 0 10 -262144 -1 -1 0
1;
#X obj 161 108 vsl 15 128 0 15 0 1 empty empty empty 0 -9 0 10 -262144
-1 -1 9600 1;
#X floatatom 122 223 5 0 0 0 - - -;
#X text 108 265 Q:;
#X obj 113 288 hsl 128 15 0.25 4 0 1 empty empty empty -2 -8 0 10 -262144
-1 -1 2700 1;
#X text 106 311 rand:;
#X obj 141 314 tgl 15 0 empty empty empty 17 7 0 10 -262144 -1 -1 0
1;
#X floatatom 165 309 5 0 0 0 - - -;
#X obj 6 193 s randomize_db;
#X obj 38 235 s set_db;
#X obj 11 334 s randomize_q;
#X obj 48 353 s set_q;
#X obj 451 280 bng 24 250 50 0 empty empty empty 17 7 0 10 -262144
-1 -1;
#X text 379 277 NEW GUESS:;
#X text 387 150 READ OUT:;
#X obj 449 152 bng 24 250 50 0 empty empty empty 17 7 0 10 -262144
-1 -1;
#X floatatom 426 194 8 0 0 0 - - -;
#X obj 495 89 f;
#X obj 530 186 f;
#X obj 555 187 f;
#X floatatom 442 217 5 0 0 0 - - -;
#X floatatom 442 242 5 0 0 0 - - -;
#X text 390 193 freq:;
#X text 423 215 Q:;
#X text 405 236 gain:;
#X obj 493 322 s newguess;
#X obj 282 76 f 0;
#X obj 259 42 r newguess;
#X obj 28 255 r newguess;
#X obj 71 381 f 1;
#X obj 164 535 para_bp2~;
#X obj 162 602 dac~;
#X obj 163 570 *~ 0.25;
#X obj 340 38 s~ preguess;
#X obj 55 488 r~ preguess;
#X obj 58 170 f 0;
#X obj 65 308 f 0;
#X obj 82 512 spigot~;
#X text 402 321 BYPASS:;
#X obj 452 322 tgl 22 0 empty empty empty 17 7 0 10 -262144 -1 -1 0
1;
#X obj 491 370 s bypass;
#X obj 138 489 r bypass;
#X obj 300 491 s guessed_db;
#X obj 227 495 s guessed_q;
#X obj 64 564 s guessed_freq;
#X obj 582 183 r guessed_db;
#X obj 540 213 +;
#X obj 498 204 -;
#X obj 539 121 r guessed_q;
#X obj 524 95 r guessed_freq;
#X obj 495 115 /;
#X obj 492 139 log;
#X obj 488 161 * 1.4427;
#X obj 506 248 s readout;
#X obj 611 24 r readout;
#X obj 630 113 s prereadout;
#X obj 610 54 t b b b;
#X obj 195 -19 r randomize_db;
#X obj 191 4 == 0;
#X obj 155 24 spigot;
#X obj 153 -40 r prereadout;
#X obj 198 31 r set_db;
#X obj -37 413 == 0;
#X obj -73 433 spigot;
#X obj -75 369 r prereadout;
#X obj -56 460 f;
#X obj -33 390 r randomize_q;
#X obj -29 435 r set_q;
#X obj 173 75 -;
#X obj 163 52 f 0;
#X floatatom 199 465 8 0 0 0 - - -;
#X obj 452 363 tgl 22 0 empty empty empty 17 7 0 10 -262144 -1 -1 0
1;
#X text 377 361 PURE NOISE:;
#X obj 494 408 s purenoise;
#X obj 233 538 r~ outampin;
#X obj 214 -97 spigot~;
#X obj 247 -136 r purenoise;
#X obj 268 -67 s~ outampin;
#X obj 412 -24 * 2;
#X obj 341 7 para_bp2~;
#X obj 507 282 f 0;
#X connect 0 0 114 0;
#X connect 1 0 6 0;
#X connect 2 0 4 0;
#X connect 3 0 1 0;
#X connect 4 0 7 0;
#X connect 5 0 56 1;
#X connect 5 0 118 1;
#X connect 6 0 5 0;
#X connect 7 0 3 0;
#X connect 7 1 1 1;
#X connect 8 0 14 0;
#X connect 9 0 15 0;
#X connect 9 0 18 0;
#X connect 10 0 8 0;
#X connect 11 0 57 1;
#X connect 11 0 117 0;
#X connect 12 0 10 0;
#X connect 12 1 8 1;
#X connect 13 0 12 0;
#X connect 14 0 11 0;
#X connect 15 0 13 0;
#X connect 16 0 15 1;
#X connect 16 0 17 0;
#X connect 17 0 18 1;
#X connect 18 0 20 0;
#X connect 19 0 20 1;
#X connect 20 0 11 0;
#X connect 21 0 22 0;
#X connect 22 0 69 1;
#X connect 22 0 83 0;
#X connect 23 0 24 0;
#X connect 23 0 26 0;
#X connect 24 0 28 0;
#X connect 25 0 26 1;
#X connect 26 0 29 0;
#X connect 27 0 30 0;
#X connect 28 0 27 0;
#X connect 29 0 30 0;
#X connect 30 0 58 1;
#X connect 30 0 118 3;
#X connect 31 0 24 1;
#X connect 31 0 25 0;
#X connect 32 0 29 1;
#X connect 33 0 34 0;
#X connect 33 0 69 2;
#X connect 33 0 82 0;
#X connect 35 0 36 0;
#X connect 35 0 69 3;
#X connect 35 0 81 0;
#X connect 39 0 74 1;
#X connect 40 0 41 0;
#X connect 41 0 48 0;
#X connect 43 0 46 0;
#X connect 45 0 75 1;
#X connect 46 0 50 0;
#X connect 46 0 68 1;
#X connect 51 0 64 0;
#X connect 51 0 119 0;
#X connect 54 0 92 0;
#X connect 56 0 89 0;
#X connect 56 0 109 0;
#X connect 57 0 86 0;
#X connect 58 0 85 0;
#X connect 65 0 35 0;
#X connect 66 0 65 0;
#X connect 66 0 40 0;
#X connect 66 0 74 0;
#X connect 67 0 68 0;
#X connect 67 0 43 0;
#X connect 67 0 75 0;
#X connect 68 0 33 0;
#X connect 69 0 71 0;
#X connect 71 0 70 0;
#X connect 71 0 70 1;
#X connect 73 0 76 0;
#X connect 74 0 47 0;
#X connect 75 0 49 0;
#X connect 76 0 69 0;
#X connect 76 1 71 0;
#X connect 78 0 79 0;
#X connect 80 0 76 1;
#X connect 84 0 85 1;
#X connect 85 0 60 0;
#X connect 86 0 59 0;
#X connect 87 0 86 1;
#X connect 88 0 89 1;
#X connect 89 0 90 0;
#X connect 90 0 91 0;
#X connect 91 0 55 0;
#X connect 93 0 95 0;
#X connect 95 1 58 0;
#X connect 95 1 56 0;
#X connect 95 1 57 0;
#X connect 95 2 94 0;
#X connect 96 0 97 0;
#X connect 97 0 98 1;
#X connect 98 0 108 0;
#X connect 99 0 98 0;
#X connect 100 0 107 1;
#X connect 101 0 102 1;
#X connect 102 0 104 0;
#X connect 103 0 102 0;
#X connect 104 0 33 0;
#X connect 105 0 101 0;
#X connect 106 0 104 1;
#X connect 107 0 35 0;
#X connect 108 0 107 0;
#X connect 110 0 112 0;
#X connect 113 0 71 0;
#X connect 114 0 118 0;
#X connect 114 1 116 0;
#X connect 115 0 114 1;
#X connect 117 0 118 2;
#X connect 118 0 72 0;
#X connect 119 0 110 0;
#X connect 119 0 78 0;
#X coords 0 -1 1 1 384 384 2 100 100;
#X restore 37 34 pd internal;
#X text 36 424 GuessEQ;
#X text 36 461 This program comes with ABSOLUTELY NO WARRANTY \; This
is free software \, and you are welcome to redistribute it under certain
conditions \; see LICENSE.txt for details.;
#X text 37 508 License: GNU GPL v3 or later;
#X text 36 441 Copyright (C) 2013 adiblol <adiblol at 1tbps dot org>
;
